<mxfile host="app.diagrams.net" modified="2020-11-30T08:55:19.228Z" agent="5.0 (Windows NT 10.0; Win64; x64) AppleWebKit/537.36 (KHTML, like Gecko) Chrome/87.0.4280.66 Safari/537.36" etag="Nb0I-ndJdFeeHZpk2_TP" version="13.10.4" type="github">
  <diagram id="liETbsWtRHQlpAEpQFHz" name="Page-1">
    <mxGraphModel dx="484" dy="239" grid="1" gridSize="10" guides="1" tooltips="1" connect="1" arrows="1" fold="1" page="1" pageScale="1" pageWidth="827" pageHeight="1169" math="0" shadow="0">
      <root>
        <mxCell id="0" />
        <mxCell id="1" parent="0" />
        <mxCell id="pgR0Y5BnGNx3I5xR80Cj-1" value="FLTK" style="rounded=0;whiteSpace=wrap;html=1;" parent="1" vertex="1">
          <mxGeometry x="220" y="210" width="300" height="40" as="geometry" />
        </mxCell>
        <mxCell id="pgR0Y5BnGNx3I5xR80Cj-2" value="Windows" style="rounded=0;whiteSpace=wrap;html=1;" parent="1" vertex="1">
          <mxGeometry x="220" y="180" width="100" height="30" as="geometry" />
        </mxCell>
        <mxCell id="pgR0Y5BnGNx3I5xR80Cj-5" value="Graph" style="rounded=0;whiteSpace=wrap;html=1;" parent="1" vertex="1">
          <mxGeometry x="320" y="150" width="100" height="60" as="geometry" />
        </mxCell>
        <mxCell id="pgR0Y5BnGNx3I5xR80Cj-6" value="GUI" style="rounded=0;whiteSpace=wrap;html=1;" parent="1" vertex="1">
          <mxGeometry x="420" y="150" width="100" height="60" as="geometry" />
        </mxCell>
        <mxCell id="pgR0Y5BnGNx3I5xR80Cj-8" value="Program" style="rounded=0;whiteSpace=wrap;html=1;" parent="1" vertex="1">
          <mxGeometry x="220" y="110" width="370" height="40" as="geometry" />
        </mxCell>
        <mxCell id="pgR0Y5BnGNx3I5xR80Cj-9" value="Points" style="rounded=0;whiteSpace=wrap;html=1;" parent="1" vertex="1">
          <mxGeometry x="520" y="150" width="70" height="100" as="geometry" />
        </mxCell>
        <mxCell id="m_e8urvxInUjTUbBve8b-5" value="Simple_window" style="rounded=0;whiteSpace=wrap;html=1;" vertex="1" parent="1">
          <mxGeometry x="220" y="150" width="100" height="30" as="geometry" />
        </mxCell>
      </root>
    </mxGraphModel>
  </diagram>
</mxfile>
